HIERARCHY
ROOT joint_Root
{
	OFFSET 0.0 0.0 0.0
	CHANNELS 6 Xposition Yposition Zposition Zrotation Xrotation Yrotation 
	JOINT Hips
	{
		OFFSET -0.726466 93.3139 -2.00062
		CHANNELS 6 Xposition Yposition Zposition Zrotation Xrotation Yrotation 
		JOINT Spine
		{
			OFFSET 15.7357 0.0 0.0
			CHANNELS 6 Xposition Yposition Zposition Zrotation Xrotation Yrotation 
			JOINT Chest
			{
				OFFSET 8.98455 -0.406207 0.0
				CHANNELS 6 Xposition Yposition Zposition Zrotation Xrotation Yrotation 
				JOINT Neck
				{
					OFFSET 16.3773 0.0 0.0
					CHANNELS 6 Xposition Yposition Zposition Zrotation Xrotation Yrotation 
					JOINT Head
					{
						OFFSET 6.45672 0.0 0.0
						CHANNELS 6 Xposition Yposition Zposition Zrotation Xrotation Yrotation 
						End Site
						{
							OFFSET 0.0 0.0 0.0
						}
					}
				}
				JOINT Shoulder_L
				{
					OFFSET 12.9942 -0.242716 4.98039
					CHANNELS 6 Xposition Yposition Zposition Zrotation Xrotation Yrotation 
					JOINT UpperArm_L
					{
						OFFSET 5.34809 0.0 0.0
						CHANNELS 6 Xposition Yposition Zposition Zrotation Xrotation Yrotation 
						JOINT LowerArm_L
						{
							OFFSET 24.3286 1.87007e-05 0.0
							CHANNELS 6 Xposition Yposition Zposition Zrotation Xrotation Yrotation 
							JOINT Hand_L
							{
								OFFSET 22.2916 0.0 0.0
								CHANNELS 6 Xposition Yposition Zposition Zrotation Xrotation Yrotation 
								End Site
								{
									OFFSET 0.0 0.0 0.0
								}
							}
						}
					}
				}
				JOINT Shoulder_R
				{
					OFFSET 12.9945 -0.242716 -4.98039
					CHANNELS 6 Xposition Yposition Zposition Zrotation Xrotation Yrotation 
					JOINT UpperArm_R
					{
						OFFSET -5.34813 0.0 0.0
						CHANNELS 6 Xposition Yposition Zposition Zrotation Xrotation Yrotation 
						JOINT LowerArm_R
						{
							OFFSET -24.3289 0.000322201 0.0
							CHANNELS 6 Xposition Yposition Zposition Zrotation Xrotation Yrotation 
							JOINT Hand_R
							{
								OFFSET -22.2915 -0.000108084 0.0
								CHANNELS 6 Xposition Yposition Zposition Zrotation Xrotation Yrotation 
								End Site
								{
									OFFSET 0.0 0.0 0.0
								}
							}
						}
					}
				}
			}
		}
		JOINT UpperLeg_L
		{
			OFFSET -2.19248 -6.46944 0.0
			CHANNELS 6 Xposition Yposition Zposition Zrotation Xrotation Yrotation 
			JOINT LowerLeg_L
			{
				OFFSET 39.0811 0.0 -1.23785e-05
				CHANNELS 6 Xposition Yposition Zposition Zrotation Xrotation Yrotation 
				JOINT Foot_L
				{
					OFFSET 40.9854 0.0 -1.26872e-05
					CHANNELS 6 Xposition Yposition Zposition Zrotation Xrotation Yrotation 
					JOINT Toes_L
					{
						OFFSET 11.7543 0.0 0.0
						CHANNELS 6 Xposition Yposition Zposition Zrotation Xrotation Yrotation 
						End Site
						{
							OFFSET 0.0 0.0 0.0
						}
					}
				}
			}
		}
		JOINT UpperLeg_R
		{
			OFFSET -2.19251 6.46944 0.0
			CHANNELS 6 Xposition Yposition Zposition Zrotation Xrotation Yrotation 
			JOINT LowerLeg_R
			{
				OFFSET -39.0811 -0.00228153 -0.0401928
				CHANNELS 6 Xposition Yposition Zposition Zrotation Xrotation Yrotation 
				JOINT Foot_R
				{
					OFFSET -40.9854 0.0 0.0
					CHANNELS 6 Xposition Yposition Zposition Zrotation Xrotation Yrotation 
					JOINT Toes_R
					{
						OFFSET -11.7543 0.0 0.0
						CHANNELS 6 Xposition Yposition Zposition Zrotation Xrotation Yrotation 
						End Site
						{
							OFFSET 0.0 0.0 0.0
						}
					}
				}
			}
		}
	}
}
MOTION
Frames:	9
Frame Time:	0.0333333
0.000000 0.000000 0.000000 0.000000 0.000000 -0.000000 120.944000 87.670000 169.005000 87.859600 -67.262100 -0.743375 15.735700 0.000005 -0.000001 104.415000 82.434900 -104.907000 8.984550 -0.406207 -0.000000 6.915640 3.757500 -1.210290 16.377300 -0.000001 -0.000001 6.907660 -8.631470 1.310660 6.456720 -0.000001 -0.000000 0.630423 -17.162500 4.207900 12.994200 -0.242716 4.980390 -87.711300 -4.714170 -64.065700 5.348090 -0.000007 -0.000001 -70.001000 27.655300 10.929800 24.328600 0.000019 0.000005 6.995290 8.496850 -39.707300 22.291600 -0.000001 0.000005 0.417368 5.582020 -10.320900 12.994500 -0.242716 -4.980390 89.365400 1.650120 -68.960500 -5.348130 -0.000001 -0.000004 -42.048800 37.281900 -46.616600 -24.328900 0.000322 -0.000009 2.795630 2.073500 -53.475900 -22.291500 -0.000108 -0.000004 1.934230 5.555220 -8.954970 -2.192480 -6.469440 -0.000000 -166.762000 -9.022810 -19.988200 39.081100 -0.000007 -0.000012 -0.005930 0.056140 6.029060 40.985400 -0.000006 -0.000013 -3.865120 -3.234290 -65.894800 11.754300 -0.000000 0.000003 -0.007164 -0.081078 -19.877600 -2.192510 6.469440 -0.000001 -174.960000 -5.414930 -172.747000 -39.081100 -0.002282 -0.040193 0.021399 -0.035830 26.789300 -40.985400 0.000008 0.000006 14.442400 3.001610 -81.115300 -11.754300 -0.000006 -0.000006 -0.699891 -0.849245 -18.545400
0.000000 0.000000 0.000000 0.000000 0.000000 -0.000000 118.905000 87.158100 172.211000 91.563500 -69.824100 1.946770 15.735700 0.000005 -0.000001 105.382000 82.480200 -106.585000 8.984550 -0.406207 -0.000000 6.790430 3.986730 -2.639670 16.377300 -0.000001 -0.000001 7.228410 -8.112280 0.952887 6.456720 -0.000001 -0.000000 0.103651 -16.355500 4.281940 12.994200 -0.242716 4.980390 -87.874700 -4.391040 -64.140600 5.348090 -0.000007 -0.000001 -69.521500 27.186200 10.431500 24.328600 0.000019 0.000005 7.195910 8.778850 -39.599300 22.291600 -0.000001 0.000005 0.587133 5.580590 -10.243700 12.994500 -0.242716 -4.980390 89.123300 2.330820 -69.381200 -5.348130 -0.000001 -0.000004 -44.052500 36.783300 -43.742700 -24.328900 0.000322 -0.000009 2.741960 2.062570 -53.087900 -22.291500 -0.000108 -0.000004 2.028070 5.554880 -8.938460 -2.192480 -6.469440 -0.000000 -166.871000 -7.616610 -25.218900 39.081100 -0.000007 -0.000012 -0.117546 0.403426 16.244600 40.985400 -0.000006 -0.000013 -13.420400 0.212488 -58.731700 11.754300 -0.000000 0.000003 -0.009261 -0.098043 -20.570600 -2.192510 6.469440 -0.000001 -178.521000 -6.145060 -171.569000 -39.081100 -0.002282 -0.040193 0.016227 -0.025423 26.937000 -40.985400 0.000008 0.000006 13.983800 5.057050 -82.183400 -11.754300 -0.000006 -0.000006 -1.501450 -1.761570 -19.772500
0.000000 0.000000 0.000000 0.000000 0.000000 -0.000000 116.465000 86.668000 175.646000 95.604500 -72.557000 5.381010 15.735700 0.000005 -0.000001 106.266000 82.509400 -108.102000 8.984550 -0.406207 -0.000000 6.699300 4.200030 -3.913890 16.377300 -0.000001 -0.000001 7.487000 -7.429260 0.611881 6.456720 -0.000001 -0.000000 -0.461766 -15.574600 4.407190 12.994200 -0.242716 4.980390 -88.151500 -3.805660 -64.068100 5.348090 -0.000007 -0.000001 -68.978600 26.465400 10.070500 24.328600 0.000019 0.000005 7.015930 8.541910 -39.643300 22.291600 -0.000001 0.000005 0.966017 5.581800 -10.308800 12.994500 -0.242716 -4.980390 88.782800 3.295600 -69.715100 -5.348130 -0.000001 -0.000004 -45.004800 36.982700 -40.933600 -24.328900 0.000322 -0.000009 2.674280 2.077520 -52.197300 -22.291500 -0.000108 -0.000004 2.022350 5.557410 -9.060680 -2.192480 -6.469440 -0.000000 -167.985000 -5.313200 -28.722300 39.081100 -0.000007 -0.000012 -0.216065 0.458003 25.256200 40.985400 -0.000006 -0.000013 -13.153800 1.538140 -53.298200 11.754300 -0.000000 0.000003 -0.012804 -0.123524 -21.613500 -2.192510 6.469440 -0.000001 177.960000 -6.608160 -170.676000 -39.081100 -0.002282 -0.040193 0.013715 -0.019617 27.949900 -40.985400 0.000008 0.000006 13.968900 7.177610 -81.024600 -11.754300 -0.000006 -0.000006 -3.080970 -3.290770 -23.654600
0.000000 0.000000 0.000000 0.000000 0.000000 -0.000000 113.578000 86.284900 179.156000 99.361700 -74.774000 9.676860 15.735700 0.000005 -0.000001 105.712000 82.240800 -108.072000 8.984550 -0.406207 -0.000000 7.278450 4.197310 -4.982560 16.377300 -0.000001 -0.000001 7.350690 -6.970400 0.514602 6.456720 -0.000001 -0.000000 -0.782035 -14.861200 4.610280 12.994200 -0.242716 4.980390 -88.347600 -3.424910 -64.224800 5.348090 -0.000007 -0.000001 -68.500700 25.896900 9.127560 24.328600 0.000019 0.000005 6.581230 8.128180 -39.214000 22.291600 -0.000001 0.000005 1.339370 5.581740 -10.305700 12.994500 -0.242716 -4.980390 88.550100 3.982500 -69.976600 -5.348130 -0.000001 -0.000004 -47.272500 37.331500 -37.106400 -24.328900 0.000322 -0.000009 3.187620 2.623080 -50.599700 -22.291500 -0.000108 -0.000004 2.234330 5.558940 -9.135170 -2.192480 -6.469440 -0.000000 -169.472000 -4.556040 -29.497700 39.081100 -0.000007 -0.000012 -0.223088 0.345136 32.878200 40.985400 -0.000006 -0.000013 -12.122300 -1.504550 -53.944100 11.754300 -0.000000 0.000003 -0.008834 -0.094719 -20.434700 -2.192510 6.469440 -0.000001 175.179000 -7.168390 -169.447000 -39.081100 -0.002282 -0.040193 0.016609 -0.022614 30.475500 -40.985400 0.000008 0.000006 14.530700 8.544370 -78.482300 -11.754300 -0.000006 -0.000006 -0.823469 -0.923896 -26.918400
0.000000 0.000000 0.000000 0.000000 0.000000 -0.000000 110.499000 86.161500 182.514000 100.997000 -76.515300 12.129100 15.735700 0.000005 -0.000001 105.037000 81.965400 -107.614000 8.984550 -0.406207 -0.000000 7.867440 4.149430 -5.436430 16.377300 -0.000001 -0.000001 7.281520 -6.767790 0.330302 6.456720 -0.000001 -0.000000 -0.975556 -14.268700 4.902670 12.994200 -0.242716 4.980390 -88.524200 -3.130200 -64.740800 5.348090 -0.000007 -0.000001 -68.006400 26.293500 7.210790 24.328600 0.000019 0.000005 6.337240 8.122350 -38.169100 22.291600 -0.000001 0.000005 1.397580 5.577630 -10.085500 12.994500 -0.242716 -4.980390 88.539300 4.012600 -69.978100 -5.348130 -0.000001 -0.000004 -51.652500 37.113300 -31.867100 -24.328900 0.000322 -0.000009 3.540840 3.183290 -48.104400 -22.291500 -0.000108 -0.000004 2.383880 5.563800 -9.374800 -2.192480 -6.469440 -0.000000 -170.905000 -6.257090 -28.730400 39.081100 -0.000007 -0.000012 -0.209533 0.260412 38.821400 40.985400 -0.000006 -0.000013 -10.585700 0.280971 -57.688100 11.754300 -0.000000 0.000003 -0.003868 -0.050072 -18.613500 -2.192510 6.469440 -0.000001 173.124000 -6.957120 -169.579000 -39.081100 -0.002282 -0.040193 0.038922 -0.050397 35.261000 -40.985400 0.000008 0.000006 15.133000 10.069100 -73.935800 -11.754300 -0.000006 -0.000006 -0.091820 -0.423791 -34.222500
0.000000 0.000000 0.000000 0.000000 0.000000 -0.000000 107.386000 86.306300 185.613000 98.334400 -78.458800 10.682000 15.735700 0.000005 -0.000001 103.952000 81.722400 -106.291000 8.984550 -0.406207 -0.000000 8.401280 3.960240 -4.966630 16.377300 -0.000001 -0.000001 7.227180 -6.359270 -0.002058 6.456720 -0.000001 -0.000000 -0.955275 -13.379200 4.888060 12.994200 -0.242716 4.980390 -88.763100 -2.645520 -64.929900 5.348090 -0.000007 -0.000001 -67.308100 27.418900 4.792620 24.328600 0.000019 0.000005 6.841270 9.069510 -37.274400 22.291600 -0.000001 0.000005 1.483550 5.574610 -9.926460 12.994500 -0.242716 -4.980390 88.622300 3.820910 -70.154900 -5.348130 -0.000001 -0.000004 -55.949700 36.618500 -26.539900 -24.328900 0.000322 -0.000009 3.121140 3.114020 -45.118300 -22.291500 -0.000108 -0.000004 2.131270 5.567230 -9.547590 -2.192480 -6.469440 -0.000000 -171.034000 -7.649430 -26.429200 39.081100 -0.000007 -0.000012 -0.262106 0.282246 42.881700 40.985400 -0.000006 -0.000013 -9.335610 0.696991 -62.778600 11.754300 -0.000000 0.000003 -0.000949 -0.014681 -17.173800 -2.192510 6.469440 -0.000001 172.086000 -6.391840 -171.820000 -39.081100 -0.002282 -0.040193 0.083170 -0.086647 42.679700 -40.985400 0.000008 0.000006 14.694700 12.466400 -66.378300 -11.754300 -0.000006 -0.000006 -0.131387 -0.516578 -38.312800
0.000000 0.000000 0.000000 0.000000 0.000000 -0.000000 104.428000 86.698800 188.235000 93.139900 -80.375500 6.802340 15.735700 0.000005 -0.000001 102.190000 81.506100 -104.209000 8.984550 -0.406207 -0.000000 8.917480 3.548460 -4.312030 16.377300 -0.000001 -0.000001 7.136510 -5.845910 -0.312095 6.456720 -0.000001 -0.000000 -0.803866 -12.185900 5.130570 12.994200 -0.242716 4.980390 -88.838400 -2.515430 -65.203500 5.348090 -0.000007 -0.000001 -66.652800 28.495400 2.231870 24.328600 0.000019 0.000005 7.002500 9.385860 -36.985800 22.291600 -0.000001 0.000005 1.987120 5.571000 -9.739290 12.994500 -0.242716 -4.980390 88.623900 3.813160 -70.139700 -5.348130 -0.000001 -0.000004 -59.094400 36.398600 -22.125000 -24.328900 0.000322 -0.000009 3.055030 3.414410 -41.875800 -22.291500 -0.000108 -0.000004 1.966790 5.570170 -9.696980 -2.192480 -6.469440 -0.000000 -170.676000 -9.107020 -22.980300 39.081100 -0.000007 -0.000012 -0.301582 0.306266 44.559100 40.985400 -0.000006 -0.000013 -8.263360 0.792808 -66.578500 11.754300 -0.000000 0.000003 -0.000001 -0.000010 -16.577900 -2.192510 6.469440 -0.000001 171.543000 -5.667110 -176.279000 -39.081100 -0.002282 -0.040193 0.166402 -0.128234 51.835000 -40.985400 0.000008 0.000006 9.924810 13.784500 -55.899700 -11.754300 -0.000006 -0.000006 -0.074964 -0.377615 -32.229500
0.000000 0.000000 0.000000 0.000000 0.000000 -0.000000 101.708000 87.176200 190.336000 87.614100 -82.294900 1.835480 15.735700 0.000005 -0.000001 99.535900 81.499100 -101.378000 8.984550 -0.406207 -0.000000 9.056340 2.781000 -3.901500 16.377300 -0.000001 -0.000001 6.915760 -5.099520 -0.540154 6.456720 -0.000001 -0.000000 -0.726766 -10.589400 5.457240 12.994200 -0.242716 4.980390 -88.782500 -2.674780 -65.515200 5.348090 -0.000007 -0.000001 -65.774100 29.104300 -0.576767 24.328600 0.000019 0.000005 6.763630 9.022760 -37.098000 22.291600 -0.000001 0.000005 2.227340 5.572100 -9.796260 12.994500 -0.242716 -4.980390 88.610500 3.851490 -70.145000 -5.348130 -0.000001 -0.000004 -61.474800 36.334400 -18.624400 -24.328900 0.000322 -0.000009 3.537670 4.366100 -39.088700 -22.291500 -0.000108 -0.000004 1.650550 5.568890 -9.631220 -2.192480 -6.469440 -0.000000 -170.418000 -9.855580 -19.660600 39.081100 -0.000007 -0.000012 -0.335104 0.339618 44.617400 40.985400 -0.000006 -0.000013 -7.849740 -0.111701 -69.442500 11.754300 -0.000000 0.000003 -0.000019 -0.000245 -16.587200 -2.192510 6.469440 -0.000001 171.042000 -4.539280 178.044000 -39.081100 -0.002282 -0.040193 0.308050 -0.179852 59.460600 -40.985400 0.000008 0.000006 0.896616 9.758530 -45.044100 -11.754300 -0.000006 -0.000006 -0.019267 -0.163198 -23.239400
0.000000 0.000000 0.000000 0.000000 0.000000 -0.000000 99.038200 87.821500 192.043000 79.388900 -83.896200 -5.990590 15.735700 0.000005 -0.000001 96.320400 81.573600 -97.976600 8.984550 -0.406207 -0.000000 9.016500 1.827510 -3.453740 16.377300 -0.000001 -0.000001 6.847210 -4.508250 -0.729290 6.456720 -0.000001 -0.000000 -0.502211 -8.816670 5.920420 12.994200 -0.242716 4.980390 -88.680800 -2.966510 -66.012400 5.348090 -0.000007 -0.000001 -64.364800 29.735400 -3.511130 24.328600 0.000019 0.000005 6.376360 8.295040 -37.760800 22.291600 -0.000001 0.000005 2.211160 5.571730 -9.776950 12.994500 -0.242716 -4.980390 88.599200 3.821330 -69.851600 -5.348130 -0.000001 -0.000004 -63.253900 36.670800 -15.296900 -24.328900 0.000322 -0.000009 3.605380 4.751420 -37.267900 -22.291500 -0.000108 -0.000004 1.419040 5.568350 -9.604330 -2.192480 -6.469440 -0.000000 -170.132000 -10.221700 -15.924700 39.081100 -0.000007 -0.000012 -0.339172 0.361416 43.182200 40.985400 -0.000006 -0.000013 -7.732750 -1.308410 -71.425900 11.754300 -0.000000 0.000003 -0.000048 -0.000549 -16.598900 -2.192510 6.469440 -0.000001 171.349000 -1.773720 173.940000 -39.081100 -0.002282 -0.040193 0.355110 -0.165088 64.870200 -40.985400 0.000008 0.000006 2.223840 3.299440 -48.618600 -11.754300 -0.000006 -0.000006 -0.022303 -0.179727 -23.920700
